<svg width="500" height="500" viewBox="0 0 500 500" fill="none" xmlns="http://www.w3.org/2000/svg">
<g clip-path="url(#clip0_725_2)">
<rect width="500" height="500" rx="120" fill="#FF765E"/>
<mask id="mask0_725_2" style="mask-type:alpha" maskUnits="userSpaceOnUse" x="0" y="0" width="500" height="500">
<rect width="500" height="500" rx="8" fill="#FF765E"/>
</mask>
<g mask="url(#mask0_725_2)">
<path d="M126.739 333C126.056 333 125.715 332.573 125.715 331.72L126.227 155.848C126.227 155.165 126.568 154.824 127.251 154.824H176.403C186.131 154.824 194.835 157.213 202.515 161.992C210.195 166.6 216.254 172.744 220.691 180.424C225.128 188.104 227.347 196.467 227.347 205.512C227.347 212.851 225.64 219.677 222.227 225.992C218.984 232.307 215.059 237.427 210.451 241.352C215.4 246.301 219.24 252.019 221.971 258.504C224.702 264.989 226.067 271.816 226.067 278.984C226.067 288.883 223.678 297.928 218.899 306.12C214.12 314.312 207.635 320.883 199.443 325.832C191.422 330.611 182.462 333 172.563 333H126.739ZM156.947 225.48H176.403C182.376 225.48 187.155 223.432 190.739 219.336C194.494 215.069 196.371 210.461 196.371 205.512C196.371 200.051 194.408 195.357 190.483 191.432C186.558 187.336 181.864 185.288 176.403 185.288H156.947V225.48ZM156.691 301.768H172.563C178.707 301.768 183.998 299.549 188.435 295.112C192.872 290.504 195.091 285.128 195.091 278.984C195.091 272.84 192.872 267.549 188.435 263.112C183.998 258.675 178.707 256.456 172.563 256.456H156.947L156.691 301.768Z" fill="white"/>
<path d="M258.289 333C257.606 333 257.265 332.573 257.265 331.72L257.777 155.848C257.777 155.165 258.118 154.824 258.801 154.824H290.033C290.716 154.824 291.313 155.165 291.825 155.848L315.121 189.64L338.417 155.848C338.929 155.165 339.526 154.824 340.209 154.824H371.697C372.38 154.824 372.721 155.165 372.721 155.848L373.233 331.72C373.233 332.573 372.892 333 372.209 333H343.281C342.598 333 342.257 332.573 342.257 331.72L342.001 201.16L315.121 240.072L288.497 201.16L288.241 331.72C288.241 332.573 287.9 333 287.217 333H258.289Z" fill="white"/>
</g>
</g>
<defs>
<clipPath id="clip0_725_2">
<rect width="500" height="500" rx="120" fill="white"/>
</clipPath>
</defs>
</svg>
