<svg width="30" height="16" viewBox="0 0 30 16" fill="none" xmlns="http://www.w3.org/2000/svg">
<path d="M15.8666 5.33333C14.7733 2.22667 11.8133 0 8.33331 0C3.91998 0 0.333313 3.58667 0.333313 8C0.333313 12.4133 3.91998 16 8.33331 16C11.8133 16 14.7733 13.7733 15.8666 10.6667H21.6666V16H27V10.6667H29.6666V5.33333H15.8666ZM8.33331 10.6667C6.86665 10.6667 5.66665 9.46667 5.66665 8C5.66665 6.53333 6.86665 5.33333 8.33331 5.33333C9.79998 5.33333 11 6.53333 11 8C11 9.46667 9.79998 10.6667 8.33331 10.6667Z" fill="white"/>
</svg>
